#!OML:ASF F:\VICON\USERDATA\INSTALL\rory3\rory3.ASF
:FULLY-SPECIFIED
:DEGREES
2270
root 5.61364 18.5012 -4.98054 -159.574 43.9598 193.377
lowerback 13.7793 -6.05222 -7.08098
upperback 6.35776 -8.26376 -5.88972
thorax -0.791601 -3.86501 -1.08278
lowerneck -11.1222 8.03091 -7.39313
upperneck 21.5176 13.4999 -0.583896
head 8.09202 5.92344 2.34961
rclavicle 1.22451e-013 -6.36111e-015
rhumerus -20.8039 34.2508 -86.9949
rradius 119.709
rwrist -3.96735
rhand -52.4673 9.66599
rfingers 7.12502
rthumb -24.9554 -18.7244
lclavicle 1.22451e-013 -6.36111e-015
lhumerus 9.88714 -7.96763 102.468
lradius 30.319
lwrist 88.3788
lhand -17.8373 41.0806
lfingers 7.12502
lthumb 8.42732 430.892
rfemur -27.5127 20.3643 14.9674
rtibia 28.2268
rfoot -10.3277 -1.08695
rtoes -15.3416
lfemur -23.7066 13.6337 -6.93382
ltibia 40.244
lfoot -21.8728 12.3328
ltoes -2.33344
2271
root 5.66452 18.5069 -4.93607 -159.457 43.7915 193.336
lowerback 13.9444 -6.09938 -6.9363
upperback 6.34098 -8.32849 -5.86735
thorax -0.914913 -3.8919 -1.10912
lowerneck -11.1009 8.03498 -7.37474
upperneck 21.7828 13.4889 -0.364249
head 8.16061 5.93298 2.42561
rclavicle 8.42847e-014 -4.13472e-014
rhumerus -20.767 33.5003 -87.0409
rradius 119.175
rwrist -4.85088
rhand -52.4586 9.75555
rfingers 7.12502
rthumb -24.9471 -18.636
lclavicle 8.42847e-014 -4.13472e-014
lhumerus 9.92696 -7.2484 102.362
lradius 29.9372
lwrist 87.5962
lhand -17.6372 40.9419
lfingers 7.12502
lthumb 8.62045 430.746
rfemur -27.5328 20.4631 15.244
rtibia 28.0937
rfoot -10.493 -1.8202
rtoes -14.5974
lfemur -23.8219 13.2765 -6.64876
ltibia 40.0224
lfoot -21.4647 12.466
ltoes -2.74097
2272
root 5.71448 18.5158 -4.89066 -159.515 43.7123 193.008
lowerback 14.0815 -6.10058 -6.95347
upperback 6.34106 -8.33688 -5.94734
thorax -0.996695 -3.88766 -1.16721
lowerneck -11.046 7.9906 -7.31825
upperneck 21.9523 13.3836 -0.142483
head 8.19624 5.90572 2.48272
rclavicle 3.02153e-014 -2.54444e-014
rhumerus -20.7004 32.5468 -87.1627
rradius 118.585
rwrist -5.74058
rhand -52.3711 10.4441
rfingers 7.12502
rthumb -24.8632 -17.9592
lclavicle 3.02153e-014 -2.54444e-014
lhumerus 9.96717 -6.37323 102.343
lradius 29.6826
lwrist 86.5779
lhand -17.7341 41.5381
lfingers 7.12502
lthumb 8.52691 431.346
rfemur -27.6307 20.454 15.2708
rtibia 28.018
rfoot -10.6334 -2.39826
rtoes -14.0599
lfemur -23.8826 12.9683 -6.65222
ltibia 39.7577
lfoot -21.1855 12.6899
ltoes -3.82103
2273
root 5.76669 18.526 -4.84654 -159.568 43.6861 192.579
lowerback 14.0986 -6.08997 -7.04027
upperback 6.3372 -8.3262 -6.04492
thorax -1.01091 -3.87655 -1.2217
lowerneck -10.8661 7.95062 -7.09407
upperneck 21.9334 13.2905 -0.226499
head 8.18161 5.87535 2.40433
rclavicle -5.56597e-014 7.31528e-014
rhumerus -20.6645 31.5787 -87.3158
rradius 118.103
rwrist -6.68309
rhand -52.6119 10.2329
rfingers 7.12502
rthumb -25.0939 -18.1383
lclavicle -5.56597e-014 7.31528e-014
lhumerus 9.77522 -5.88145 102.149
lradius 29.9907
lwrist 86.1351
lhand -18.4531 42.4002
lfingers 7.12502
lthumb 7.83307 432.235
rfemur -27.8282 20.4274 15.1799
rtibia 28.0208
rfoot -10.8597 -2.80777
rtoes -13.754
lfemur -23.9767 12.6885 -6.75815
ltibia 39.4299
lfoot -21.0573 12.8826
ltoes -4.09224
2274
root 5.8169 18.5352 -4.80453 -159.542 43.5542 192.308
lowerback 14.1901 -6.08047 -6.99003
upperback 6.30927 -8.31856 -6.04234
thorax -1.09692 -3.8684 -1.23497
lowerneck -10.6915 7.88645 -6.89943
upperneck 21.9849 13.1958 -0.362813
head 8.19454 5.8349 2.31737
rclavicle 4.29375e-014 3.18055e-014
rhumerus -20.7531 30.5931 -87.361
rradius 117.836
rwrist -7.75511
rhand -52.7726 9.3486
rfingers 7.12502
rthumb -25.2479 -19.0009
lclavicle 4.29375e-014 3.18055e-014
lhumerus 9.28551 -5.59842 101.982
lradius 30.7686
lwrist 85.7991
lhand -19.217 42.8991
lfingers 7.12502
lthumb 7.09566 432.76
rfemur -28.0031 20.3861 15.227
rtibia 28.0713
rfoot -11.0784 -3.14539
rtoes -13.5881
lfemur -24.0162 12.3609 -6.6946
ltibia 39.0357
lfoot -20.8628 12.9344
ltoes -3.85926
2275
root 5.86563 18.5493 -4.76712 -159.563 43.4459 192.007
lowerback 14.2828 -6.04449 -6.91042
upperback 6.26551 -8.27575 -6.0356
thorax -1.20508 -3.84241 -1.26297
lowerneck -10.6081 7.80101 -6.81169
upperneck 22.2638 13.0922 -0.325841
head 8.28033 5.79095 2.31539
rclavicle -8.26944e-014 1.90833e-013
rhumerus -20.8627 29.5146 -87.2947
rradius 117.687
rwrist -8.99257
rhand -53.0512 8.07635
rfingers 7.12502
rthumb -25.5147 -20.2353
lclavicle -8.26944e-014 1.90833e-013
lhumerus 8.7597 -5.06499 102
lradius 31.4448
lwrist 85.0544
lhand -19.4458 44.0823
lfingers 7.12502
lthumb 6.87482 433.951
rfemur -28.1615 20.3744 15.1907
rtibia 28.0964
rfoot -11.1849 -3.40372
rtoes -13.1611
lfemur -23.9955 11.992 -6.66507
ltibia 38.5956
lfoot -20.5929 13.0552
ltoes -3.96276
2276
root 5.91276 18.5604 -4.73304 -159.671 43.4437 191.622
lowerback 14.3503 -5.98043 -6.90308
upperback 6.22657 -8.20103 -6.01338
thorax -1.28196 -3.80261 -1.24432
lowerneck -10.5643 7.70392 -6.94891
upperneck 22.595 12.9935 -0.155202
head 8.36674 5.74374 2.39429
rclavicle 4.77083e-014 9.85972e-014
rhumerus -20.9073 28.4059 -87.063
rradius 117.523
rwrist -10.4784
rhand -52.9274 7.187
rfingers 7.12502
rthumb -25.3962 -21.1415
lclavicle 4.77083e-014 9.85972e-014
lhumerus 8.22069 -4.55696 102.112
lradius 32.094
lwrist 84.4668
lhand -20.0804 45.1073
lfingers 7.12502
lthumb 6.26216 434.995
rfemur -28.2999 20.4369 15.0247
rtibia 28.0747
rfoot -11.2082 -3.62792
rtoes -12.6799
lfemur -23.9059 11.6892 -6.75018
ltibia 38.1153
lfoot -20.3271 13.27
ltoes -4.14456
2277
root 5.95971 18.5681 -4.69984 -159.769 43.4024 191.276
lowerback 14.4143 -5.94291 -6.83676
upperback 6.21189 -8.15185 -5.96208
thorax -1.33535 -3.77685 -1.22551
lowerneck -10.6888 7.61087 -7.17237
upperneck 23.0404 12.9232 0.0981759
head 8.51042 5.70313 2.52982
rclavicle 9.54166e-015 1.39944e-013
rhumerus -20.9259 27.2818 -86.7823
rradius 117.405
rwrist -12.1946
rhand -51.7845 7.15174
rfingers 7.12502
rthumb -24.3009 -21.3279
lclavicle 9.54166e-015 1.39944e-013
lhumerus 7.69503 -4.66674 101.829
lradius 32.9305
lwrist 84.7827
lhand -21.5882 43.874
lfingers 7.12502
lthumb 4.80641 433.8
rfemur -28.4088 20.4677 14.9034
rtibia 28.0104
rfoot -11.2136 -3.73325
rtoes -12.779
lfemur -23.7712 11.4065 -6.80428
ltibia 37.5847
lfoot -20.0887 13.4492
ltoes -4.09903
2278
root 6.00517 18.5823 -4.67085 -159.931 43.235 190.867
lowerback 14.4764 -5.88759 -6.62526
upperback 6.16575 -8.06468 -5.98696
thorax -1.4547 -3.72679 -1.36605
lowerneck -10.4528 7.49002 -6.99522
upperneck 23.3394 12.7701 0.0597706
head 8.59034 5.64126 2.47923
rclavicle 3.81667e-014 -3.18055e-015
rhumerus -21.0918 25.8634 -86.603
rradius 117.275
rwrist -14.011
rhand -50.9704 7.28245
rfingers 7.12502
rthumb -23.5202 -21.2996
lclavicle 3.81667e-014 -3.18055e-015
lhumerus 6.87235 -4.87691 101.596
lradius 33.7972
lwrist 85.0108
lhand -22.907 42.4639
lfingers 7.12502
lthumb 3.53288 432.414
rfemur -28.4409 20.3911 14.7544
rtibia 27.9135
rfoot -11.285 -3.68731
rtoes -12.4404
lfemur -23.6288 10.9597 -6.88509
ltibia 37.0358
lfoot -19.8531 13.6929
ltoes -4.49296
2279
root 6.05189 18.5976 -4.64476 -160.206 43.0828 190.352
lowerback 14.4876 -5.76242 -6.40837
upperback 6.12689 -7.87533 -6.0699
thorax -1.54863 -3.62423 -1.59058
lowerneck -10.0089 7.31581 -6.5978
upperneck 23.5806 12.5277 -0.147524
head 8.64192 5.5473 2.31957
rclavicle 3.02153e-014 3.49861e-014
rhumerus -21.2699 24.2079 -86.3553
rradius 117.019
rwrist -15.7076
rhand -50.5101 6.78628
rfingers 7.12502
rthumb -23.0786 -21.8517
lclavicle 3.02153e-014 3.49861e-014
lhumerus 5.82706 -5.5775 101.339
lradius 34.688
lwrist 85.3568
lhand -23.3487 42.7737
lfingers 7.12502
lthumb 3.1064 432.731
rfemur -28.416 20.2757 14.5206
rtibia 27.8572
rfoot -11.4506 -3.58066
rtoes -11.9471
lfemur -23.4328 10.4714 -7.05131
ltibia 36.4634
lfoot -19.5951 13.9773
ltoes -4.86103
2280
root 6.09657 18.6092 -4.61138 -160.344 43.1818 189.965
lowerback 14.4547 -5.54766 -6.30183
upperback 6.13878 -7.5691 -6.10807
thorax -1.54233 -3.46802 -1.73499
lowerneck -9.9666 7.11984 -6.47668
upperneck 23.9309 12.2679 -0.0681034
head 8.7648 5.43746 2.31779
rclavicle -2.22639e-014 -3.18055e-015
rhumerus -21.2169 22.7072 -85.9406
rradius 116.766
rwrist -17.1272
rhand -50.0061 6.72032
rfingers 7.12502
rthumb -22.595 -21.9773
lclavicle -2.22639e-014 -3.18055e-015
lhumerus 5.0437 -6.50605 100.987
lradius 35.5023
lwrist 85.723
lhand -23.1647 43.4577
lfingers 7.12502
lthumb 3.28406 433.412
rfemur -28.5951 20.4272 14.2424
rtibia 27.8784
rfoot -11.4521 -3.52194
rtoes -11.5237
lfemur -23.2198 10.2706 -7.19356
ltibia 35.8554
lfoot -19.2864 14.2616
ltoes -4.97684
2281
root 6.14303 18.6224 -4.57581 -160.475 43.3328 189.572
lowerback 14.4151 -5.35521 -6.35392
upperback 6.17352 -7.3086 -6.06895
thorax -1.4744 -3.33962 -1.70958
lowerneck -10.11 6.97442 -6.52424
upperneck 24.2236 12.101 0.0350729
head 8.88782 5.35518 2.36442
rclavicle 1.74931e-014 9.54166e-015
rhumerus -21.0891 21.65 -85.4399
rradius 116.672
rwrist -18.465
rhand -49.7384 6.54993
rfingers 7.12502
rthumb -22.338 -22.1787
lclavicle 1.74931e-014 9.54166e-015
lhumerus 4.42227 -7.12721 100.706
lradius 36.3489
lwrist 86.1576
lhand -23.1644 43.7711
lfingers 7.12502
lthumb 3.28429 433.725
rfemur -28.8448 20.5968 13.9672
rtibia 27.9542
rfoot -11.4194 -3.48187
rtoes -11.4269
lfemur -23.0045 10.229 -7.3638
ltibia 35.2548
lfoot -18.9776 14.4644
ltoes -5.05209
2282
root 6.18907 18.6389 -4.54839 -160.751 43.3904 189.053
lowerback 14.3945 -5.22548 -6.46061
upperback 6.20162 -7.14018 -6.01738
thorax -1.41432 -3.25759 -1.62623
lowerneck -9.95931 6.87756 -6.54334
upperneck 24.2593 11.9799 -0.006625
head 8.87922 5.29727 2.33706
rclavicle -3.18055e-015 5.725e-014
rhumerus -21.1263 20.8332 -85.0125
rradius 116.781
rwrist -19.7697
rhand -49.5677 5.31568
rfingers 7.12502
rthumb -22.1741 -23.4326
lclavicle -3.18055e-015 5.725e-014
lhumerus 3.66388 -7.68995 100.476
lradius 37.4152
lwrist 86.7076
lhand -23.6491 44.559
lfingers 7.12502
lthumb 2.81629 434.52
rfemur -28.9693 20.7535 13.6298
rtibia 28.0268
rfoot -11.4536 -3.51227
rtoes -11.5393
lfemur -22.7648 10.0196 -7.63235
ltibia 34.7228
lfoot -18.7365 14.7471
ltoes -5.12792
